<svg id="Слой_1" data-name="Слой 1" xmlns="http://www.w3.org/2000/svg" viewBox="0 0 256.33 256"><defs><style>.cls-1{fill:#dbf4e1;}</style></defs><title>add</title><circle class="cls-1" cx="128" cy="128" r="125.5"/><path d="M128,5a123,123,0,0,1,87,210A123,123,0,1,1,41,41,122.16,122.16,0,0,1,128,5m0-5A128,128,0,1,0,256,128,128,128,0,0,0,128,0Z"/><circle class="cls-1" cx="128" cy="128" r="106.57"/><path d="M128,23.93A104.07,104.07,0,1,1,23.93,128,104.19,104.19,0,0,1,128,23.93m0-5A109.07,109.07,0,1,0,237.07,128,109.07,109.07,0,0,0,128,18.93Z"/><circle class="cls-1" cx="128" cy="128" r="86.14" transform="translate(-53.02 128) rotate(-45)"/><path d="M128,44.36A83.64,83.64,0,1,1,44.36,128,83.73,83.73,0,0,1,128,44.36m0-5A88.64,88.64,0,1,0,216.64,128,88.65,88.65,0,0,0,128,39.36Z"/><circle class="cls-1" cx="128" cy="128" r="66.37" transform="translate(-53.02 128) rotate(-45)"/><path d="M128,64.13A63.87,63.87,0,1,1,64.13,128,63.94,63.94,0,0,1,128,64.13m0-5A68.87,68.87,0,1,0,196.87,128,68.86,68.86,0,0,0,128,59.13Z"/><circle cx="128" cy="128" r="31.7"/><path d="M128,96.8A31.2,31.2,0,1,1,96.8,128,31.24,31.24,0,0,1,128,96.8m0-1A32.2,32.2,0,1,0,160.2,128,32.2,32.2,0,0,0,128,95.8Z"/><polygon points="180.94 255.5 180.94 203.39 128.83 203.39 128.83 180.61 180.94 180.61 180.94 128.5 203.72 128.5 203.72 180.61 255.83 180.61 255.83 203.39 203.72 203.39 203.72 255.5 180.94 255.5"/><path d="M203.22,129v52.11h52.11v21.78H203.22V255H181.44V202.89H129.33V181.11h52.11V129h21.78m1-1H180.44v52.11H128.33v23.78h52.11V256h23.78V203.89h52.11V180.11H204.22V128Z"/></svg>