<svg id="Слой_1" data-name="Слой 1" xmlns="http://www.w3.org/2000/svg" viewBox="0 0 255.45 255.48"><defs><style>.cls-1{fill:#dbf4e1;}</style></defs><title>remove</title><polygon class="cls-1" points="127.67 151.12 26.95 251.84 3.62 228.5 104.34 127.78 3.54 26.98 26.87 3.65 127.67 104.45 228.58 3.54 251.92 26.87 151.01 127.78 251.84 228.61 228.5 251.95 127.67 151.12"/><path d="M229.15,7.52,249,27.32,151.57,124.7,148,128.24l3.53,3.53,97.29,97.29-19.8,19.8-97.29-97.29L128.24,148l-3.54,3.53L27.52,248.75,7.72,229l97.18-97.18,3.54-3.53-3.54-3.54L7.64,27.44l19.8-19.8L124.7,104.9l3.54,3.54,3.53-3.54L229.15,7.52m0-7.07L128.24,101.37,27.44.56.56,27.44l100.81,100.8L.65,229l26.87,26.87L128.24,155.11,229.06,255.94l26.88-26.88L155.11,128.24,256,27.32,229.15.45Z" transform="translate(-0.56 -0.45)"/></svg>